<?xml version="1.0" encoding="utf-8"?>
<!-- Generator: Adobe Illustrator 21.1.0, SVG Export Plug-In . SVG Version: 6.00 Build 0)  -->
<svg version="1.1" id="Layer_1" xmlns="http://www.w3.org/2000/svg" xmlns:xlink="http://www.w3.org/1999/xlink" x="0px" y="0px"
	 viewBox="0 0 1920 1080" style="enable-background:new 0 0 1920 1080;" xml:space="preserve">
<style type="text/css">
	.st0{fill:url(#SVGID_1_);}
	.st1{opacity:0;fill:#FFFFFF;enable-background:new    ;}
</style>
<title>main-bg-final-testmdpi</title>
<g id="Layer_2">
	<g id="Layer_1-2">
		
			<linearGradient id="SVGID_1_" gradientUnits="userSpaceOnUse" x1="1180.2571" y1="701.774" x2="392.637" y2="123.2841" gradientTransform="matrix(1 0 0 -1 0 1080)">
			<stop  offset="0" style="stop-color:#3C78DF"/>
			<stop  offset="0" style="stop-color:#3B77DF"/>
			<stop  offset="1" style="stop-color:#10459F"/>
		</linearGradient>
		<path class="st0" d="M1920,399v681H0V0h960c0.8,0,9.8,20.8,10.7,22.2c11.1,19.5,25.4,37.1,41.2,53
			c60.7,60.9,144.2,93.9,227.3,110.3c146,28.8,296.1,0.3,440.5,42.7c12.5,3.7,25,7.8,37.3,12.4c68.2,25.3,131.4,64.5,177,120.9
			C1903.5,373.4,1912.2,385.9,1920,399z"/>
	</g>
</g>
<path class="st1" d="M1197.7,257.1L810,506.9c-20,12.9-46.6,7.1-59.5-12.9l0,0c-12.9-20-7.1-46.6,12.9-59.5l387.7-249.8
	c20-12.9,46.6-7.1,59.5,12.9l0,0C1223.4,217.6,1217.7,244.2,1197.7,257.1z"/>
<path class="st1" d="M2184.1,478.4l-464.7,299.4c-27.2,17.5-63.4,9.7-80.9-17.5l0,0c-17.5-27.2-9.7-63.4,17.5-80.9L2120.7,380
	c27.2-17.5,63.4-9.7,80.9,17.5l0,0C2219.1,424.6,2211.2,460.9,2184.1,478.4z"/>
<path class="st1" d="M1256,574l-238.6,153.7c-17.8,11.4-41.5,6.3-52.9-11.4l0,0c-11.4-17.8-6.3-41.5,11.4-52.9l238.6-153.7
	c17.8-11.4,41.5-6.3,52.9,11.4l0,0C1278.8,538.8,1273.7,562.5,1256,574z"/>
<path class="st1" d="M567,579.5l38.4-24.7c12.7-8.2,29.7-4.5,37.9,8.2l0,0c8.2,12.7,4.5,29.7-8.2,37.9l-38.4,24.7
	c-12.7,8.2-29.7,4.5-37.9-8.2l0,0C550.6,604.7,554.3,587.7,567,579.5z"/>
<path class="st1" d="M283.3,568.2l38.4-24.7c12.7-8.2,29.7-4.5,37.9,8.2l0,0c8.2,12.7,4.5,29.7-8.2,37.9L313,614.3
	c-12.7,8.2-29.7,4.5-37.9-8.2l0,0C266.9,593.4,270.6,576.4,283.3,568.2z"/>
<path class="st1" d="M93.8,665.6l67.9-43.6c22.4-14.5,52.5-8,67,14.5l0,0c14.5,22.4,8,52.5-14.5,67l-67.9,43.6
	c-22.4,14.5-52.5,8-67-14.5l0,0C64.8,710.1,71.4,680.1,93.8,665.6z"/>
<path class="st1" d="M664.9,716.9L664.9,716.9c12.7-8.2,29.7-4.5,37.9,8.2l0,0c8.2,12.7,4.5,29.7-8.2,37.9l0,0
	c-12.7,8.2-29.7,4.5-37.9-8.2l0,0C648.5,742.1,652.2,725.1,664.9,716.9z"/>
<path class="st1" d="M644,257.5l25.6-16.5c19.7-12.7,46-7,58.7,12.7l0,0c12.7,19.7,7,46-12.7,58.7L690,329
	c-19.7,12.7-46,7-58.7-12.7l0,0C618.6,296.5,624.3,270.2,644,257.5z"/>
<path class="st1" d="M1089.8,832L832.9,997.5c-12.7,8.2-29.7,4.5-37.9-8.2l0,0c-8.2-12.7-4.5-29.7,8.2-37.9L1060,785.9
	c12.7-8.2,29.7-4.5,37.9,8.2l0,0C1106.2,806.8,1102.5,823.8,1089.8,832z"/>
<path class="st1" d="M341,933.8l-117.9,76c-19.2,12.4-44.9,6.8-57.2-12.4l0,0c-12.4-19.2-6.8-44.9,12.4-57.2l117.9-76
	c19.2-12.4,44.9-6.8,57.2,12.4l0,0C365.7,895.8,360.2,921.4,341,933.8z"/>
<path class="st1" d="M443.6,867.7l-15,9.7c-19.2,12.4-44.9,6.8-57.2-12.4l0,0c-12.4-19.2-6.8-44.9,12.4-57.2l15-9.7
	c19.2-12.4,44.9-6.8,57.2,12.4l0,0C468.4,829.7,462.8,855.3,443.6,867.7z"/>
<path class="st1" d="M1188.6,379.6L568.1,779.3c-12.7,8.2-16.4,25.2-8.2,37.9l0,0c8.2,12.7,25.2,16.4,37.9,8.2l620.5-399.7
	c12.7-8.2,16.4-25.2,8.2-37.9l0,0C1218.3,375.1,1201.3,371.4,1188.6,379.6z"/>
<path class="st1" d="M1775.4,309.1l-297.1,191.4c-45,29-105,16-134-29l0,0c-29-45-16-105,29-134l297.1-191.4c45-29,105-16,134,29
	l0,0C1833.4,220.1,1820.4,280.1,1775.4,309.1z"/>
<path class="st1" d="M1230.5-37.1L816.6,229.5c-12.7,8.2-29.7,4.5-37.9-8.2l0,0c-8.2-12.7-4.5-29.7,8.2-37.9l413.9-266.7
	c12.7-8.2,29.7-4.5,37.9,8.2l0,0C1246.9-62.3,1243.3-45.4,1230.5-37.1z"/>
<path class="st1" d="M1739.9,409.7l-483,311.1c-29.5,19-38,58.3-19,87.8l0,0c19,29.5,58.3,38,87.8,19l483-311.1
	c29.5-19,38-58.3,19-87.8l0,0C1808.7,399.2,1769.4,390.7,1739.9,409.7z"/>
<path class="st1" d="M1919.5,714.9l-532.1,342.8c-37.2,23.9-47.9,73.5-23.9,110.7l0,0c23.9,37.2,73.5,47.9,110.7,23.9l532.1-342.8
	c37.2-23.9,47.9-73.5,23.9-110.7l0,0C2006.2,701.7,1956.7,690.9,1919.5,714.9z"/>
<path class="st1" d="M537.5-33L-30.4,332.8c-17.4,11.3-40.7,6.2-52-11.3l0,0c-11.3-17.4-6.2-40.7,11.3-52L496.8-96.4
	c17.4-11.3,40.7-6.2,52,11.3l0,0C560-67.6,555.1-44.4,537.5-33z"/>
<path class="st1" d="M183.7,463.9l-333.5,214.9c-16.5,10.6-38.6,5.8-49.2-10.6l0,0c-10.6-16.5-5.8-38.6,10.6-49.2l333.5-214.9
	c16.5-10.6,38.6-5.8,49.2,10.6l0,0C205.2,431.2,200.3,453.3,183.7,463.9z"/>
<path class="st1" d="M453.4,92.5L-63,425.1c-10.6,6.8-13.6,21-6.8,31.5l0,0c6.8,10.6,21,13.6,31.5,6.8l516.4-332.6
	c10.6-6.8,13.6-21,6.8-31.5l0,0C478.2,88.7,464,85.7,453.4,92.5z"/>
<path class="st1" d="M438.5,299.9l-24.8,16c-16.5,10.6-38.6,5.8-49.2-10.6l0,0c-10.6-16.5-5.8-38.6,10.6-49.2l24.8-16
	c16.5-10.6,38.6-5.8,49.2,10.6l0,0C459.8,267.2,455,289.3,438.5,299.9z"/>
<path class="st1" d="M129.1,106.6L91.2,131c-25.2,16.3-59,9-75.2-16.2l0,0c-16.3-25.2-8.9-59,16.2-75.2l37.9-24.4
	C95.3-1.1,129,6.3,145.3,31.5l0,0C161.6,56.6,154.2,90.4,129.1,106.6z"/>
<path class="st1" d="M302.4,387.6l-24.8,16c-16.5,10.6-38.6,5.8-49.2-10.6l0,0c-10.6-16.5-5.8-38.6,10.6-49.2l24.8-16
	c16.5-10.6,38.6-5.8,49.2,10.6l0,0C323.8,354.9,319,376.9,302.4,387.6z"/>
</svg>
